<svg width="20" height="21" viewBox="0 0 20 21" fill="none" xmlns="http://www.w3.org/2000/svg">
<path fill-rule="evenodd" clip-rule="evenodd" d="M0 2C0 0.895431 0.895431 0 2 0H18C19.1046 0 20 0.89543 20 2V15C20 16.1046 19.1046 17 18 17H13.4599L10.7621 20.1759C10.3628 20.6461 9.6372 20.6461 9.23785 20.1759L6.54007 17H2C0.895431 17 0 16.1046 0 15V2ZM6 8.5C6 8.22386 6.22386 8 6.5 8H13.5C13.7761 8 14 8.22386 14 8.5V9.5C14 9.77614 13.7761 10 13.5 10H6.5C6.22386 10 6 9.77614 6 9.5V8.5Z" fill="white"/>
</svg>
