<svg width="43" height="36" viewBox="0 0 43 36" fill="none" xmlns="http://www.w3.org/2000/svg">
<g filter="url(#filter0_d_4_1071)">
<path d="M37.7488 18.5845C38.1785 18.1965 38.1899 17.5257 37.7736 17.1233L24.4882 4.28295C23.8535 3.66949 22.7932 4.11928 22.7932 5.00199V10.3621C17.8272 10.2853 14.0963 11.5842 11.3237 13.5746C8.50779 15.5962 6.7136 18.307 5.608 20.9345C4.50341 23.5595 4.07774 26.1203 4.00995 27.8761C3.97652 28.742 4.02816 29.4566 4.15223 29.8933C4.18394 30.0048 4.22678 30.122 4.28837 30.2255C4.34258 30.3167 4.45727 30.4754 4.66565 30.5417C4.91639 30.6214 5.12921 30.5191 5.25256 30.4132C5.36389 30.3176 5.4387 30.1943 5.49047 30.0908L5.49705 30.0777L5.50234 30.0653L5.50284 30.0641L5.50411 30.0613L5.51432 30.0391C5.52418 30.018 5.54023 29.9845 5.56294 29.94C5.60837 29.8509 5.68042 29.7173 5.78287 29.549C5.98783 29.2123 6.31409 28.737 6.79199 28.1994C7.74659 27.1255 9.30921 25.7993 11.729 24.8314C13.1064 24.2805 15.4023 24.0297 17.6533 23.9891C19.8014 23.9504 21.8049 24.1041 22.7932 24.322V29.8392C22.7932 30.7058 23.8203 31.1622 24.4634 30.5814L37.7488 18.5845Z" fill="#FBFBFB"/>
<path d="M33.656 17.1574C34.6157 16.0418 33.656 14.4506 33.656 14.4506L32 11.5469L24.4882 4.28295C23.8535 3.66949 22.7932 4.11928 22.7932 5.00199V10.3621C17.8272 10.2853 14.0963 11.5842 11.3237 13.5746C8.50779 15.5962 6.7136 18.307 5.608 20.9345C4.50341 23.5595 4.07774 26.1203 4.00995 27.8761C3.97652 28.742 4.02816 29.4566 4.15223 29.8933C4.18394 30.0048 4.22678 30.122 4.28837 30.2255C4.34258 30.3167 4.45727 30.4754 4.66565 30.5417C4.91639 30.6214 5.12921 30.5191 5.25256 30.4132C5.36389 30.3176 5.4387 30.1943 5.49047 30.0908L5.49705 30.0777L5.50234 30.0653L5.50284 30.0641L5.50411 30.0613L5.51432 30.0391C5.52418 30.018 5.54023 29.9845 5.56294 29.94C5.60837 29.8509 5.68042 29.7173 5.78287 29.549C5.98783 29.2123 6.31409 28.737 6.79199 28.1994C7.74659 27.1255 13.0432 23.3672 16.0432 21.8672C18.5432 20.3672 22.7932 19.3672 22.7932 19.3672V25.3672C22.7932 26.2337 23.8203 26.6901 24.4634 26.1094L33.656 17.1574Z" fill="white"/>
</g>
<defs>
<filter id="filter0_d_4_1071" x="0" y="0.33" width="42.0786" height="34.8412" filterUnits="userSpaceOnUse" color-interpolation-filters="sRGB">
<feFlood flood-opacity="0" result="BackgroundImageFix"/>
<feColorMatrix in="SourceAlpha" type="matrix" values="0 0 0 0 0 0 0 0 0 0 0 0 0 0 0 0 0 0 127 0" result="hardAlpha"/>
<feOffset dy="0.33"/>
<feGaussianBlur stdDeviation="2"/>
<feColorMatrix type="matrix" values="0 0 0 0 0 0 0 0 0 0 0 0 0 0 0 0 0 0 0.1 0"/>
<feBlend mode="normal" in2="BackgroundImageFix" result="effect1_dropShadow_4_1071"/>
<feBlend mode="normal" in="SourceGraphic" in2="effect1_dropShadow_4_1071" result="shape"/>
</filter>
</defs>
</svg>
